<?xml version="1.0" standalone="no"?>
<!DOCTYPE svg PUBLIC "-//W3C//DTD SVG 20010904//EN"
 "http://www.w3.org/TR/2001/REC-SVG-20010904/DTD/svg10.dtd">
<svg version="1.0" xmlns="http://www.w3.org/2000/svg"
 width="1000.000000pt" height="1000.000000pt" viewBox="0 0 1000.000000 1000.000000"
 preserveAspectRatio="xMidYMid meet">

<g transform="translate(0.000000,1000.000000) scale(0.100000,-0.100000)"
fill="#000000" stroke="none">
<path d="M4725 9770 c-22 -5 -69 -9 -104 -9 -163 -2 -582 -71 -831 -137 -52
-14 -129 -34 -170 -45 -41 -12 -85 -23 -98 -26 -12 -3 -25 -9 -28 -14 -3 -5
-16 -9 -29 -9 -13 0 -27 -4 -30 -10 -3 -5 -15 -10 -26 -10 -10 0 -27 -4 -37
-9 -9 -5 -55 -24 -102 -41 -77 -29 -200 -79 -320 -132 -97 -43 -200 -95 -304
-155 -60 -35 -110 -63 -113 -63 -2 0 -37 -22 -79 -50 -41 -27 -78 -50 -81 -50
-10 0 -258 -174 -342 -239 -328 -256 -677 -606 -891 -891 -40 -52 -78 -103
-86 -113 -26 -33 -201 -291 -223 -329 -11 -21 -31 -55 -42 -75 -47 -81 -132
-239 -169 -313 -41 -79 -91 -192 -139 -315 -29 -71 -56 -139 -61 -150 -5 -11
-14 -38 -21 -60 -6 -22 -15 -49 -20 -60 -4 -11 -13 -38 -20 -60 -6 -22 -15
-49 -19 -60 -4 -11 -13 -40 -20 -65 -18 -72 -27 -102 -38 -145 -54 -195 -95
-417 -134 -720 -18 -135 -18 -910 -1 -1015 7 -41 17 -113 23 -160 23 -177 87
-490 130 -630 4 -14 13 -45 20 -70 48 -168 146 -436 230 -626 38 -86 182 -367
221 -433 22 -34 39 -65 39 -67 0 -7 207 -320 244 -369 21 -27 47 -63 59 -79
34 -45 157 -196 196 -241 203 -225 318 -340 491 -491 25 -21 47 -42 50 -45 8
-10 281 -221 336 -259 75 -52 285 -191 322 -212 17 -10 48 -27 67 -38 19 -11
51 -29 71 -40 51 -29 300 -154 359 -180 47 -21 94 -41 140 -60 20 -9 239 -88
330 -120 52 -18 157 -50 235 -70 25 -7 56 -16 70 -20 14 -5 41 -11 60 -15 19
-4 51 -11 70 -15 444 -99 573 -112 1070 -113 377 -1 431 1 585 22 152 20 302
46 420 72 22 5 63 14 90 19 129 27 169 38 335 88 124 38 428 148 517 188 77
34 360 174 418 207 168 95 213 123 365 226 1104 751 1844 1879 2075 3166 61
344 70 446 70 865 0 355 -7 479 -35 665 -47 302 -79 457 -140 670 -18 61 -29
101 -35 125 -4 14 -10 34 -15 45 -4 11 -14 40 -21 65 -7 25 -16 49 -21 55 -4
5 -8 17 -8 27 0 10 -4 26 -10 36 -5 9 -30 71 -55 137 -44 114 -204 450 -250
525 -12 19 -35 60 -52 90 -63 115 -78 139 -170 273 -180 264 -344 467 -537
665 -115 117 -353 338 -441 407 -27 22 -58 47 -68 56 -37 34 -285 209 -367
260 -209 129 -275 167 -435 249 -158 80 -454 207 -570 245 -27 8 -58 20 -67
25 -10 6 -25 10 -33 10 -8 0 -23 4 -33 9 -9 5 -51 19 -92 30 -41 12 -88 26
-105 31 -49 15 -276 70 -332 81 -29 5 -79 14 -110 20 -125 22 -295 44 -473 60
-154 14 -605 20 -655 9z m695 -145 c336 -33 643 -92 925 -177 396 -119 703
-254 1090 -478 179 -103 501 -337 655 -475 19 -18 80 -72 135 -122 90 -81 232
-228 341 -353 21 -24 47 -54 58 -65 66 -72 265 -343 361 -490 55 -86 67 -106
116 -192 12 -21 25 -42 29 -48 26 -35 205 -406 250 -520 4 -11 18 -45 30 -75
25 -61 118 -328 131 -375 4 -16 17 -66 29 -110 161 -599 202 -1242 121 -1875
-24 -187 -82 -472 -121 -600 -4 -14 -13 -45 -20 -70 -40 -150 -130 -400 -211
-590 -28 -64 -181 -374 -203 -410 -9 -14 -43 -72 -77 -130 -60 -103 -220 -342
-246 -368 -7 -7 -13 -17 -13 -20 0 -4 -10 -18 -23 -32 -12 -14 -46 -56 -75
-94 -121 -159 -430 -484 -562 -592 -19 -16 -56 -48 -82 -73 -26 -24 -60 -53
-76 -65 -16 -11 -81 -60 -143 -107 -168 -126 -319 -227 -446 -300 -18 -11 -50
-29 -70 -41 -121 -70 -416 -212 -548 -263 -38 -15 -85 -34 -102 -41 -30 -14
-301 -104 -368 -123 -78 -22 -163 -44 -240 -61 -189 -43 -211 -47 -485 -85
-191 -26 -454 -38 -710 -31 -623 16 -1215 144 -1760 383 -65 29 -395 193 -440
219 -25 15 -60 35 -78 46 -181 102 -515 341 -683 489 -612 537 -1033 1131
-1329 1874 -43 110 -110 302 -131 383 -9 30 -15 53 -40 140 -6 20 -14 55 -19
77 -5 22 -14 60 -19 85 -19 77 -52 264 -70 390 -69 471 -49 1131 47 1580 37
172 45 204 72 305 12 44 25 94 29 110 25 91 131 382 184 505 63 145 206 437
227 465 4 6 17 27 29 48 49 88 62 108 134 217 133 200 279 394 386 515 187
207 294 317 411 419 58 50 111 97 119 104 36 35 217 175 306 238 276 194 513
330 830 474 166 76 507 196 685 241 291 74 560 122 840 148 149 14 663 12 820
-4z"/>
<path d="M4585 9325 c-163 -19 -273 -34 -450 -65 -58 -9 -111 -21 -187 -40
-21 -6 -55 -14 -75 -19 -21 -5 -56 -15 -78 -21 -22 -6 -56 -15 -75 -20 -81
-21 -423 -149 -540 -202 -147 -68 -260 -126 -382 -196 -21 -12 -53 -31 -72
-41 -74 -42 -326 -207 -336 -221 -3 -3 -21 -17 -40 -30 -19 -14 -44 -32 -55
-41 -11 -10 -49 -40 -85 -69 -180 -142 -467 -425 -636 -625 -131 -155 -286
-378 -407 -583 -94 -161 -231 -441 -288 -589 -14 -36 -28 -71 -39 -95 -22 -51
-110 -329 -133 -418 -105 -411 -147 -741 -147 -1145 0 -248 16 -469 51 -677
26 -163 30 -183 60 -315 54 -243 160 -565 250 -761 16 -35 29 -65 29 -67 0 -6
144 -296 167 -336 12 -20 27 -47 35 -60 39 -70 230 -356 295 -443 236 -315
493 -576 838 -851 86 -70 329 -232 480 -322 103 -61 331 -176 465 -233 41 -18
98 -43 126 -55 112 -51 468 -162 619 -195 55 -11 118 -25 140 -30 37 -8 73
-14 223 -40 317 -53 869 -63 1172 -20 193 27 278 41 365 60 22 5 85 19 140 30
159 34 514 147 632 201 35 16 66 29 68 29 20 0 379 175 481 235 482 281 925
659 1246 1062 145 183 309 418 387 555 11 21 31 55 43 75 52 91 181 359 218
454 12 30 27 68 35 84 69 158 153 433 206 675 34 154 68 389 89 605 13 140 13
543 0 677 -18 185 -32 301 -47 388 -9 47 -19 108 -24 135 -5 28 -13 68 -18 90
-6 22 -13 54 -17 70 -39 180 -151 527 -219 680 -7 17 -21 50 -32 75 -32 79
-169 352 -219 435 -220 372 -397 605 -671 882 -211 213 -265 262 -503 450 -54
43 -186 137 -236 168 -32 21 -82 53 -111 71 -28 19 -54 34 -58 34 -4 0 -19 8
-33 18 -50 35 -306 168 -422 220 -133 60 -434 172 -525 197 -33 9 -76 21 -95
27 -19 5 -52 14 -72 19 -21 5 -55 13 -75 18 -21 5 -56 14 -78 20 -22 6 -69 16
-105 21 -36 6 -92 15 -125 20 -290 48 -446 59 -755 58 -157 0 -334 -6 -395
-13z m739 -410 c0 -27 -5 -87 -9 -132 -4 -46 -5 -83 -1 -83 4 0 49 40 99 89
156 150 146 145 234 138 42 -3 81 -11 87 -17 11 -12 9 -15 -203 -210 -44 -41
-81 -78 -81 -82 0 -3 25 -42 55 -85 134 -189 204 -298 197 -305 -5 -5 -32 -4
-61 2 -30 5 -71 10 -91 10 -37 0 -41 4 -108 98 -38 53 -87 123 -108 155 -46
71 -48 68 -64 -90 -6 -59 -13 -110 -16 -115 -6 -10 -79 -11 -124 -2 l-32 7 6
61 c6 66 19 178 36 321 6 50 15 132 20 184 5 51 14 99 19 105 6 7 34 9 78 6
l68 -5 -1 -50z m-451 -2 c6 -48 27 -462 31 -593 l1 -35 -77 -3 -77 -3 -5 43
c-7 61 -26 468 -26 559 0 42 3 79 7 82 3 4 36 7 73 7 l67 0 6 -57z m-633 -163
c15 -74 32 -169 39 -210 7 -41 17 -88 22 -104 5 -16 9 -40 9 -53 0 -24 2 -25
53 -18 28 4 68 11 87 16 19 5 49 9 67 9 35 0 37 -4 48 -81 l6 -47 -53 -11
c-29 -6 -78 -16 -108 -22 -30 -6 -75 -15 -100 -20 -25 -5 -63 -10 -84 -11
l-40 -3 -12 55 c-12 52 -21 101 -43 215 -5 28 -14 76 -20 108 -6 31 -16 83
-22 115 -6 31 -15 76 -20 99 -16 73 -13 79 34 91 23 5 58 9 77 9 l34 -2 26
-135z m1925 51 c66 -21 141 -44 166 -52 78 -22 83 -28 64 -88 -10 -27 -22 -54
-29 -59 -7 -6 -48 3 -111 24 -55 18 -101 33 -102 34 -7 1 -32 -60 -38 -91 -8
-41 -8 -41 153 -89 32 -10 42 -18 42 -34 0 -37 -28 -101 -45 -104 -9 -2 -54 8
-100 23 -46 15 -90 25 -98 22 -17 -6 -50 -108 -39 -118 8 -7 39 -18 140 -50
73 -23 73 -23 66 -53 -10 -50 -32 -96 -45 -96 -7 0 -90 25 -186 56 -123 40
-173 60 -173 71 0 8 17 67 39 132 21 64 64 197 96 296 52 162 71 215 78 215 1
0 56 -17 122 -39z m-2440 -72 c94 -26 150 -108 150 -218 0 -58 -4 -72 -33
-113 -26 -38 -48 -55 -106 -83 -40 -19 -78 -35 -85 -35 -18 0 -14 -17 29 -126
22 -56 40 -107 40 -112 0 -14 -131 -65 -141 -55 -7 7 -81 195 -191 483 -22 58
-43 112 -48 121 -13 25 -1 35 75 64 39 15 79 31 90 35 47 19 62 24 105 36 60
16 68 16 115 3z m3087 -190 c190 -41 298 -212 228 -362 -49 -105 -112 -150
-329 -237 l-134 -54 -76 40 c-41 21 -76 44 -78 49 -3 11 2 14 150 71 l98 38
-40 34 c-64 52 -91 107 -91 180 0 119 76 223 178 243 20 3 38 7 39 8 1 0 26
-4 55 -10z m-3574 -350 c89 -156 161 -290 160 -298 -3 -14 -70 -59 -110 -74
-18 -6 -31 13 -120 173 -14 25 -72 126 -128 225 -71 125 -100 183 -93 193 11
18 105 72 118 69 6 -2 83 -131 173 -288z m-492 58 c3 -17 15 -59 25 -92 11
-33 24 -78 30 -100 6 -22 15 -51 19 -65 4 -14 13 -45 20 -70 7 -25 19 -65 27
-90 15 -46 47 -158 63 -218 7 -30 5 -35 -33 -67 -22 -19 -48 -35 -57 -35 -9 0
-84 37 -166 81 -82 45 -187 102 -234 126 -47 25 -112 60 -145 78 -33 18 -70
37 -83 44 -29 15 -22 26 51 86 l58 47 37 -23 c36 -21 264 -153 329 -190 18
-10 35 -14 38 -9 3 5 -19 84 -50 177 -30 92 -59 182 -65 199 -18 55 -13 69 47
116 32 25 63 43 70 41 6 -3 15 -19 19 -36z m4798 -184 c77 -64 165 -137 194
-161 80 -67 76 -71 -133 -150 -44 -17 -145 -55 -225 -86 -80 -30 -181 -69
-224 -85 l-80 -30 -30 23 c-17 13 -49 40 -71 59 l-40 35 40 17 c46 20 66 28
115 45 19 7 44 16 55 21 11 4 94 35 184 69 90 33 170 64 178 69 12 6 2 19 -48
61 -35 29 -83 69 -106 88 -24 19 -43 40 -43 45 0 17 64 96 79 97 7 0 77 -53
155 -117z m-2209 -52 c102 -14 192 -28 230 -36 54 -11 119 -26 160 -36 22 -6
57 -15 78 -20 20 -5 56 -14 80 -21 51 -14 275 -95 299 -108 10 -6 23 -10 29
-10 27 0 405 -197 479 -250 16 -11 31 -20 35 -20 11 0 126 -81 240 -169 109
-84 494 -459 551 -536 16 -22 31 -42 34 -45 3 -3 17 -21 30 -40 13 -19 27 -37
30 -40 10 -7 106 -150 168 -249 57 -92 192 -362 237 -476 15 -38 31 -79 36
-90 4 -11 13 -38 20 -60 7 -22 17 -44 21 -49 4 -6 8 -20 8 -32 0 -13 4 -25 9
-28 5 -3 11 -20 14 -38 3 -18 10 -51 16 -73 21 -84 32 -131 37 -160 3 -16 9
-39 14 -50 5 -11 11 -40 14 -65 3 -25 11 -79 17 -120 18 -107 18 -880 1 -975
-7 -38 -17 -95 -23 -125 -5 -30 -12 -73 -15 -95 -4 -22 -10 -44 -15 -49 -5 -6
-9 -25 -9 -42 0 -18 -4 -36 -10 -39 -5 -3 -10 -21 -10 -40 0 -19 -4 -37 -10
-40 -5 -3 -10 -17 -10 -30 0 -13 -4 -27 -10 -30 -5 -3 -10 -17 -10 -31 0 -13
-4 -33 -10 -44 -6 -11 -14 -29 -20 -40 -5 -11 -10 -28 -10 -38 0 -10 -3 -22
-7 -25 -3 -4 -14 -28 -23 -54 -27 -76 -139 -313 -188 -398 -89 -156 -205 -332
-269 -410 -5 -5 -22 -28 -38 -50 -26 -35 -170 -198 -230 -260 -11 -11 -65 -61
-120 -110 -55 -50 -109 -98 -120 -108 -11 -10 -53 -43 -95 -75 -41 -31 -77
-60 -80 -63 -7 -9 -218 -149 -224 -149 -3 0 -45 -24 -93 -53 -48 -29 -135 -76
-193 -104 -153 -74 -153 -74 -330 -138 -41 -14 -84 -30 -95 -35 -25 -10 -90
-27 -227 -61 -21 -5 -55 -13 -75 -19 -39 -10 -66 -14 -168 -30 -183 -29 -261
-34 -550 -34 -290 0 -395 6 -555 34 -30 5 -73 12 -95 15 -22 4 -49 10 -60 15
-20 9 -56 16 -128 27 -20 3 -40 9 -43 14 -3 5 -15 9 -26 9 -20 0 -67 13 -113
30 -100 39 -212 80 -219 80 -4 0 -37 14 -74 31 -463 215 -693 374 -1044 722
-139 137 -241 247 -288 312 -41 55 -90 123 -111 150 -20 28 -47 68 -59 90 -12
22 -31 52 -41 67 -11 14 -19 29 -19 32 0 4 -11 23 -24 44 -28 44 -106 197
-136 267 -25 56 -48 110 -60 140 -10 24 -63 171 -85 237 -21 64 -65 232 -77
293 -52 282 -53 291 -53 715 0 392 3 439 35 605 28 150 77 339 110 430 76 208
85 230 155 379 60 130 137 269 197 358 21 31 38 61 38 67 0 5 3 11 8 13 4 2
30 35 57 73 75 106 167 217 300 363 73 80 274 257 400 351 61 46 118 89 128
97 9 8 20 14 23 14 3 0 37 22 77 48 138 93 397 225 547 280 30 11 98 36 150
55 52 19 106 38 120 42 14 3 39 10 55 15 109 31 149 40 168 40 13 0 27 4 33 9
5 5 27 11 49 15 22 3 67 10 100 15 33 6 100 15 148 20 49 5 92 12 95 16 10 10
628 -2 717 -14z m3224 -1257 c12 -24 21 -48 21 -52 0 -8 -105 -161 -129 -189
-23 -26 -7 -21 84 28 104 55 112 55 135 -2 18 -42 5 -53 -153 -134 -72 -37
-137 -72 -144 -77 -15 -12 -45 4 -67 36 -30 47 -21 80 49 173 35 48 63 89 61
91 -2 2 -44 -17 -92 -42 -49 -25 -93 -46 -100 -46 -6 0 -19 18 -29 40 -23 51
-18 56 93 114 48 24 116 60 152 79 35 18 72 32 82 29 9 -2 26 -24 37 -48z
m-7105 -84 c108 -57 114 -59 130 -41 9 9 16 22 16 28 0 37 66 38 88 2 11 -17
4 -35 -50 -137 -89 -166 -81 -156 -111 -148 -39 9 -52 40 -33 78 9 17 16 36
16 43 0 6 -28 26 -62 44 -159 84 -188 103 -188 121 0 26 38 70 61 70 11 0 71
-27 133 -60z m-279 -407 c52 -35 232 -180 240 -194 13 -21 -6 -97 -31 -124
l-25 -27 -182 7 c-100 4 -188 12 -194 17 -19 15 -16 52 7 81 15 19 32 27 62
29 39 3 41 5 56 51 l15 49 -31 25 c-35 27 -41 56 -16 91 20 29 51 28 99 -5z
m7643 -56 c6 -6 14 -25 17 -40 6 -24 2 -34 -24 -61 -31 -32 -32 -36 -22 -72
16 -57 22 -62 70 -66 38 -3 46 -7 54 -31 5 -15 6 -39 3 -52 -8 -33 -36 -37
-231 -33 l-159 3 -23 34 c-30 44 -31 110 -3 136 42 38 276 194 291 195 9 0 21
-6 27 -13z m172 -87 c11 -11 20 -29 20 -40 0 -22 -33 -60 -53 -60 -20 0 -54
28 -60 50 -6 25 28 70 54 70 10 0 28 -9 39 -20z m-7442 -66 c29 -20 28 -50 -3
-70 -28 -19 -42 -58 -27 -77 6 -7 6 -21 1 -34 -10 -27 -59 -32 -79 -8 -33 40
3 169 54 193 28 14 28 14 54 -4z m-530 -415 c261 -45 252 -42 252 -99 0 -62
-26 -84 -140 -115 -55 -16 -97 -32 -92 -37 5 -5 35 -13 68 -18 107 -18 119
-23 122 -56 2 -19 -4 -40 -16 -54 -18 -23 -22 -23 -73 -13 -30 7 -79 16 -109
22 -30 5 -86 16 -125 23 l-70 14 -3 45 c-4 59 20 90 84 107 27 8 60 17 74 22
14 5 38 11 55 15 l30 7 -25 13 c-14 8 -36 14 -50 15 -13 0 -48 6 -77 12 -50
12 -53 14 -53 43 0 44 34 79 69 70 14 -4 50 -11 79 -16z m7960 -93 c52 -59 82
-224 49 -266 -12 -16 -67 -31 -192 -51 -38 -6 -87 -14 -108 -19 -71 -15 -107
48 -107 191 0 62 4 81 20 102 28 35 84 46 123 23 29 -16 47 -14 47 6 0 25 44
48 90 48 42 0 52 -4 78 -34z m-7925 -549 c88 -31 147 -119 147 -222 0 -72 -35
-135 -75 -135 -34 0 -50 25 -36 56 18 41 14 118 -9 147 -52 66 -165 53 -196
-22 -21 -50 -11 -83 24 -79 21 2 28 9 32 32 7 39 31 53 64 38 25 -11 26 -16
26 -85 0 -43 -5 -78 -12 -85 -19 -19 -183 -16 -202 3 -20 21 -36 79 -36 136 0
156 135 264 273 216z m7982 -393 c24 -10 45 -70 45 -129 0 -138 -86 -235 -207
-235 -121 1 -213 99 -213 227 0 82 35 143 80 143 42 0 53 -20 35 -63 -25 -59
-20 -112 14 -149 27 -30 35 -33 86 -33 50 0 60 3 81 29 19 21 24 38 22 65 -3
31 -7 36 -30 39 -22 3 -28 -1 -28 -17 0 -36 -12 -51 -40 -51 -42 0 -53 21 -48
94 6 92 15 100 110 92 43 -4 85 -9 93 -12z m-7802 -539 c9 -8 25 -59 37 -112
12 -54 26 -111 31 -127 15 -47 11 -63 -21 -76 -42 -17 -58 -7 -72 46 -14 51
-7 49 -113 25 -204 -46 -197 -46 -207 2 -10 47 3 75 40 83 96 20 123 26 172
38 l55 13 0 48 c0 64 42 96 78 60z m7481 -65 c17 -5 81 -21 141 -36 61 -14
118 -30 128 -35 21 -12 22 -48 1 -92 -19 -39 -32 -45 -209 -82 -26 -6 -28 -8
-14 -18 9 -7 45 -18 80 -25 35 -7 71 -17 79 -21 40 -21 11 -101 -38 -101 -34
0 -313 70 -329 83 -18 13 -16 62 2 97 17 32 35 39 174 69 l85 17 -50 13 c-182
48 -168 41 -164 91 1 14 7 31 12 38 12 14 60 16 102 2z m-7310 -520 c38 -58
59 -133 53 -188 -4 -39 -12 -53 -44 -80 -34 -30 -43 -33 -83 -29 -25 2 -55 8
-67 12 -19 6 -27 -1 -58 -49 -19 -31 -41 -56 -47 -56 -7 0 -22 10 -35 22 -35
33 -30 74 17 136 22 29 40 57 40 62 0 14 -28 12 -75 -4 -48 -17 -60 -13 -75
24 -24 59 -13 70 150 130 47 18 94 35 105 40 11 4 31 12 45 17 33 14 44 8 74
-37z m7121 -80 c6 -4 48 -22 95 -41 99 -40 144 -80 153 -135 17 -108 -69 -234
-159 -234 -32 0 -99 25 -260 96 -33 15 -36 19 -30 47 7 34 32 67 52 67 8 0 42
-13 76 -28 160 -73 196 -76 219 -21 12 31 11 33 -21 61 -19 15 -41 28 -50 28
-9 0 -20 4 -25 8 -6 5 -37 19 -70 32 -33 13 -69 31 -79 41 -17 16 -18 21 -6
49 7 17 20 35 29 40 16 9 57 4 76 -10z m-167 -42 c23 -23 12 -54 -37 -102 -50
-49 -75 -56 -94 -25 -17 27 1 62 51 102 51 40 62 43 80 25z m-6734 -373 c9
-13 16 -37 16 -52 0 -28 -18 -44 -106 -93 -112 -64 -137 -92 -114 -135 23 -43
65 -37 165 23 142 85 143 85 170 31 14 -26 15 -36 4 -55 -16 -31 -10 -36 30
-24 26 7 36 5 52 -11 26 -26 24 -54 -7 -78 -37 -29 -96 -27 -150 4 l-44 26
-42 -23 c-100 -53 -160 -51 -218 5 -71 69 -91 170 -48 233 19 28 114 92 208
142 14 7 29 17 35 23 15 15 32 10 49 -16z m6634 -127 c19 -19 14 -45 -11 -65
-55 -43 -64 -114 -19 -155 65 -61 119 -65 168 -13 18 19 34 47 36 63 2 20 9
28 26 30 27 4 62 -23 62 -48 0 -56 -77 -160 -138 -186 -76 -32 -156 -10 -229
62 -42 42 -53 59 -58 97 -12 77 13 148 68 199 31 30 74 37 95 16z m-6028 -461
c11 -20 12 -30 2 -51 -10 -23 -17 -26 -67 -26 -42 0 -57 4 -62 16 -9 23 21 42
55 36 l27 -5 -25 27 c-24 27 -25 28 -6 42 17 12 23 12 40 0 12 -7 28 -25 36
-39z m-205 -32 c64 -27 122 -108 132 -186 6 -44 10 -46 53 -21 31 17 31 17 56
-11 30 -35 30 -42 -2 -72 -22 -21 -37 -25 -86 -25 -53 0 -64 -4 -103 -35 -101
-84 -190 -81 -281 9 -62 63 -83 123 -64 183 29 89 86 147 168 169 49 13 76 10
127 -11z m5690 -241 c24 -24 15 -43 -30 -68 -47 -26 -85 -78 -85 -115 0 -58
65 -121 124 -121 34 0 92 51 83 74 -10 25 -35 31 -56 12 -10 -9 -25 -16 -34
-16 -21 0 -47 38 -40 59 11 28 95 101 118 101 31 0 135 -110 135 -143 0 -67
-119 -180 -203 -192 -121 -18 -237 85 -237 210 0 30 37 116 62 145 54 63 129
88 163 54z m-5228 -226 c39 -37 40 -49 13 -154 -11 -44 -20 -90 -20 -103 0
-19 6 -16 38 26 93 124 102 129 146 88 34 -31 29 -51 -28 -120 -190 -232 -177
-220 -217 -199 -17 8 -38 29 -48 45 -20 32 -20 26 14 172 9 38 14 71 12 73 -3
3 -35 -31 -71 -76 l-67 -81 -29 21 c-16 12 -32 25 -36 31 -11 19 5 54 48 105
24 29 72 86 106 128 73 87 89 92 139 44z m4860 -288 c59 -84 102 -153 100
-165 -3 -24 -62 -65 -95 -65 -13 0 -59 19 -101 43 -82 46 -111 60 -111 51 0
-3 25 -42 57 -86 61 -87 62 -100 10 -126 -19 -9 -32 -10 -45 -3 -18 10 -197
256 -209 288 -8 20 43 71 79 78 23 6 47 -3 120 -44 86 -48 108 -57 108 -47 0
3 -25 39 -55 81 -30 43 -55 83 -55 91 0 17 59 55 79 52 8 -2 61 -68 118 -148z
m-4259 -122 c54 -27 92 -71 92 -107 0 -48 -49 -71 -70 -32 -27 52 -130 79
-176 46 -26 -17 -54 -74 -54 -108 0 -45 63 -103 98 -90 19 8 14 51 -8 63 -37
20 -19 80 24 80 28 0 125 -60 132 -82 7 -22 -69 -163 -92 -172 -23 -9 -81 3
-131 26 -76 35 -143 128 -143 199 0 61 63 160 120 186 60 28 141 24 208 -9z
m3446 -4 c40 -39 2 -96 -72 -108 -21 -3 -47 -15 -57 -26 -35 -39 -75 -19 -75
37 0 28 5 36 33 48 17 7 45 16 60 20 15 3 35 14 45 25 20 24 45 26 66 4z m241
-44 c8 -16 15 -41 15 -55 0 -27 -33 -99 -50 -110 -16 -10 -12 -42 10 -85 31
-61 27 -127 -11 -173 -77 -94 -210 -111 -273 -36 -23 27 -85 147 -119 231 -18
42 -11 52 41 67 44 13 62 -4 102 -99 57 -133 99 -168 153 -122 22 19 22 39 -2
88 -66 138 -91 193 -91 202 0 10 60 42 79 42 6 0 20 -9 31 -20 l20 -20 0 48
c0 55 12 72 52 72 20 0 31 -8 43 -30z m-2185 -190 c10 -5 28 -25 40 -45 45
-72 -12 -105 -69 -40 -35 41 -37 51 -14 77 19 21 19 21 43 8z m-66 -107 c26
-27 36 -45 34 -63 -4 -33 -46 -39 -73 -10 -20 22 -55 26 -72 9 -6 -6 -21 -9
-34 -7 -19 2 -24 9 -24 33 0 22 8 35 34 52 51 35 92 30 135 -14z m-607 -4
c118 -38 158 -124 89 -191 -31 -30 -33 -35 -20 -53 24 -33 18 -91 -15 -127
-29 -32 -31 -33 -108 -32 -61 1 -90 6 -134 26 -63 29 -72 39 -71 77 1 28 68
274 83 303 16 30 75 29 176 -3z m2211 -4 c7 -14 12 -49 11 -78 0 -62 -24 -256
-33 -277 -9 -22 -40 -39 -85 -46 -36 -6 -43 -3 -71 27 -35 39 -138 183 -176
246 l-25 42 21 21 c12 12 33 20 54 20 33 0 38 -5 107 -114 40 -63 77 -112 82
-109 6 3 7 58 2 130 -8 145 0 163 65 163 30 0 39 -5 48 -25z m-1656 -116 c113
-17 115 -18 122 -34 3 -8 0 -27 -6 -41 -12 -25 -14 -26 -93 -22 -80 3 -80 3
-80 -22 0 -23 5 -26 60 -35 70 -12 85 -19 85 -45 0 -39 -26 -50 -101 -44 l-69
7 0 -31 c0 -30 1 -30 73 -42 96 -15 97 -16 97 -44 0 -32 -25 -56 -58 -56 -56
1 -202 28 -217 40 -8 7 -15 27 -15 44 0 34 27 247 35 284 13 54 39 60 167 41z
m719 -36 c4 -4 11 -90 15 -189 7 -177 6 -182 -14 -193 -11 -6 -37 -11 -57 -11
-48 0 -78 32 -130 140 l-40 82 -5 -108 -5 -109 -38 -3 c-21 -2 -44 1 -51 7
-17 14 -31 344 -16 372 8 15 22 19 59 19 59 0 73 -14 134 -132 24 -48 47 -85
50 -82 3 3 3 48 0 100 -7 111 1 129 56 120 19 -3 38 -9 42 -13z"/>
<path d="M3563 8575 c-18 -8 -33 -18 -33 -22 0 -4 12 -41 27 -81 27 -70 29
-73 55 -68 40 8 77 35 94 67 12 25 13 33 0 63 -23 56 -75 71 -143 41z"/>
<path d="M6730 8372 c-66 -66 -23 -175 70 -175 46 0 76 22 97 71 11 27 11 37
0 65 -19 44 -39 59 -92 64 -39 5 -47 2 -75 -25z"/>
<path d="M3715 6790 c-22 -5 -59 -9 -82 -9 -58 -1 -212 -54 -313 -108 -47 -26
-87 -49 -90 -52 -3 -4 -25 -22 -50 -41 -62 -47 -133 -124 -182 -194 -47 -68
-118 -215 -118 -244 0 -12 -4 -23 -9 -26 -25 -16 -44 -335 -25 -426 30 -144
76 -256 155 -370 61 -89 189 -214 253 -247 17 -9 33 -19 36 -23 11 -15 163
-82 227 -100 108 -30 263 -45 316 -31 25 6 61 11 78 11 72 0 331 99 369 140 3
3 21 17 40 30 38 27 104 84 129 113 9 10 27 31 39 45 78 88 161 254 198 397
10 38 9 367 -1 418 -4 20 -11 40 -16 43 -5 3 -9 14 -9 24 0 28 -68 165 -121
245 -147 221 -403 373 -670 399 -30 3 -68 8 -85 10 -16 2 -47 1 -69 -4z m-150
-470 c3 -5 15 -10 26 -10 10 0 19 -3 19 -8 0 -4 18 -18 39 -32 22 -13 45 -34
52 -47 7 -13 16 -23 21 -23 4 0 8 -9 8 -20 0 -11 5 -20 10 -20 6 0 10 -11 10
-25 0 -16 6 -25 15 -25 8 0 15 7 15 15 0 43 86 146 146 174 16 7 37 17 46 22
24 12 185 11 193 -1 3 -5 15 -10 26 -10 10 0 19 -4 19 -9 0 -5 9 -13 20 -16
35 -11 99 -84 127 -143 23 -50 26 -71 27 -163 1 -61 -4 -116 -10 -130 -7 -13
-20 -42 -29 -64 -20 -44 -74 -128 -87 -133 -4 -2 -8 -9 -8 -15 0 -21 -210
-216 -233 -217 -4 0 -20 -13 -36 -28 -17 -15 -42 -34 -58 -42 -15 -8 -52 -30
-82 -47 -30 -18 -64 -33 -76 -33 -12 0 -48 16 -81 36 -32 20 -75 45 -94 56
-19 11 -42 29 -51 39 -9 11 -20 19 -23 19 -10 0 -124 98 -160 139 -17 18 -46
48 -63 67 -18 18 -33 36 -33 39 0 4 -13 25 -28 48 -25 37 -40 69 -73 155 -15
39 -10 184 8 238 29 88 87 156 168 201 32 17 58 21 132 22 51 1 95 -3 98 -9z"/>
<path d="M5236 6454 c-9 -8 -16 -21 -16 -28 0 -7 -11 -18 -23 -25 -26 -14 -70
-83 -111 -171 -24 -52 -51 -139 -75 -243 -13 -58 -14 -206 -2 -256 5 -20 15
-63 21 -96 24 -122 73 -234 151 -345 115 -163 292 -299 468 -358 60 -20 84
-22 325 -22 243 0 265 2 326 23 228 78 434 260 540 478 17 35 35 71 39 79 7
13 32 113 62 248 12 57 11 181 -2 239 -33 145 -67 249 -85 267 -8 8 -14 20
-14 26 0 16 -42 90 -51 90 -4 0 -9 9 -12 20 -3 11 -13 20 -23 20 -14 0 -15 -3
-6 -12 7 -7 12 -18 12 -26 0 -12 -5 -11 -25 2 l-25 17 6 -42 7 -41 -32 7 c-28
6 -31 4 -31 -18 0 -13 -9 -32 -20 -42 -11 -10 -20 -29 -20 -42 0 -18 -5 -23
-26 -23 -28 0 -42 -11 -64 -53 -11 -23 -12 -30 -1 -36 9 -6 10 -11 2 -15 -6
-4 -11 -3 -11 3 0 5 -10 13 -22 17 -13 4 -26 12 -30 18 -5 8 -11 7 -20 -2 -9
-9 -9 -12 5 -12 10 0 17 -8 17 -20 0 -11 7 -20 15 -20 8 0 15 -4 15 -10 0 -5
5 -10 11 -10 6 0 18 -8 27 -17 22 -22 23 -130 2 -143 -12 -8 -13 -13 -2 -30 6
-11 12 -45 12 -75 0 -44 -5 -60 -22 -77 -18 -18 -23 -35 -23 -80 -1 -47 -5
-61 -24 -78 -13 -11 -28 -20 -33 -20 -4 0 -8 -18 -8 -40 0 -23 -7 -52 -16 -65
-33 -51 -57 -55 -326 -55 -262 0 -271 1 -314 49 -20 21 -22 38 -29 237 -7 209
-2 294 16 294 5 0 9 7 9 15 0 8 -4 15 -8 15 -4 0 -8 9 -9 20 -1 11 2 20 8 20
5 0 9 4 9 9 0 5 -11 4 -24 -2 -22 -10 -23 -13 -10 -31 17 -25 19 -45 2 -28 -7
7 -22 12 -34 12 -21 0 -22 4 -17 37 4 26 3 34 -5 29 -7 -4 -12 -14 -12 -22 0
-8 -4 -12 -10 -9 -5 3 -10 15 -10 26 0 10 -6 19 -14 19 -9 0 -12 -7 -9 -20 6
-24 -4 -25 -45 -4 -40 20 -41 28 -2 22 20 -3 30 0 30 9 0 8 -13 13 -37 13 -57
0 -113 11 -107 21 3 5 14 9 25 9 11 0 17 5 14 10 -3 6 -20 10 -36 10 -37 0
-69 16 -69 34 0 7 -25 39 -55 71 -41 42 -57 67 -61 96 -7 43 -11 47 -29 22
-10 -14 -13 -8 -19 41 -5 39 -4 62 4 72 17 19 5 18 -14 -2z m-19 -111 c-3 -10
-5 -4 -5 12 0 17 2 24 5 18 2 -7 2 -21 0 -30z m190 -305 c-3 -7 -5 -2 -5 12 0
14 2 19 5 13 2 -7 2 -19 0 -25z m261 -382 l2 -337 -132 3 -133 3 -3 319 c-1
201 1 323 8 331 6 7 29 10 62 8 29 -2 80 0 113 5 33 5 65 9 70 7 6 -1 11 -124
13 -339z m49 262 c-3 -7 -5 -2 -5 12 0 14 2 19 5 13 2 -7 2 -19 0 -25z"/>
<path d="M6675 6450 c-3 -5 1 -22 9 -37 l15 -28 1 32 c0 17 6 34 13 36 6 3 2
6 -10 6 -12 1 -25 -3 -28 -9z"/>
<path d="M6731 6424 c0 -11 3 -14 6 -6 3 7 2 16 -1 19 -3 4 -6 -2 -5 -13z"/>
<path d="M6620 6400 c0 -11 5 -20 10 -20 6 0 10 9 10 20 0 11 -4 20 -10 20 -5
0 -10 -9 -10 -20z"/>
<path d="M6650 6361 c0 -5 -3 -16 -6 -25 -4 -11 0 -16 13 -16 22 0 29 36 7 44
-8 3 -14 1 -14 -3z"/>
<path d="M5330 6299 c0 -11 5 -17 10 -14 6 3 10 13 10 21 0 8 -4 14 -10 14 -5
0 -10 -9 -10 -21z"/>
<path d="M6360 6110 c-12 -8 -11 -10 6 -10 11 0 30 -9 42 -21 13 -11 30 -19
40 -17 13 3 9 8 -15 21 -18 10 -33 22 -33 27 0 13 -21 13 -40 0z"/>
<path d="M5603 6103 c9 -2 17 -9 17 -14 0 -5 11 -9 25 -9 14 0 25 -6 25 -12 0
-8 7 -5 15 6 8 11 15 25 14 30 0 6 -3 5 -6 -1 -6 -15 -49 -17 -58 -3 -3 6 -16
9 -28 9 -17 -1 -18 -2 -4 -6z"/>
<path d="M5825 6090 c-3 -5 -1 -10 4 -10 6 0 11 5 11 10 0 6 -2 10 -4 10 -3 0
-8 -4 -11 -10z"/>
<path d="M6310 6090 c0 -5 7 -10 16 -10 8 0 12 5 9 10 -3 6 -10 10 -16 10 -5
0 -9 -4 -9 -10z"/>
<path d="M5700 6060 c0 -5 9 -10 20 -10 11 0 20 5 20 10 0 6 -9 10 -20 10 -11
0 -20 -4 -20 -10z"/>
<path d="M5785 6001 c-3 -5 -1 -12 5 -16 5 -3 10 1 10 9 0 18 -6 21 -15 7z"/>
<path d="M3444 4540 c-80 -16 -177 -48 -254 -83 -26 -12 -111 -66 -120 -76 -3
-4 -23 -20 -45 -36 -95 -71 -218 -224 -265 -330 -12 -27 -26 -58 -31 -67 -5
-10 -9 -26 -9 -36 0 -10 -3 -22 -7 -26 -4 -4 -13 -28 -20 -54 -14 -56 -17
-381 -4 -426 5 -17 15 -51 22 -76 59 -215 236 -439 434 -550 68 -39 195 -89
254 -100 31 -7 75 -16 98 -21 135 -29 369 9 543 89 120 55 289 201 368 318 48
72 112 200 112 225 0 10 4 20 9 23 23 15 43 257 32 392 -11 129 -19 166 -56
259 -79 198 -255 389 -450 488 -113 57 -161 73 -280 92 -117 19 -218 18 -331
-5z m291 -504 c95 -18 143 -36 222 -84 92 -54 189 -145 251 -235 68 -99 69
-123 3 -220 -95 -141 -193 -220 -356 -287 -69 -29 -110 -35 -235 -35 -117 0
-144 3 -200 24 -125 45 -197 90 -284 175 -63 61 -156 199 -156 230 0 12 14 43
30 69 17 26 30 50 30 52 0 15 101 120 160 167 161 128 353 180 535 144z"/>
<path d="M3545 3911 c-87 -24 -171 -93 -208 -170 -33 -69 -32 -207 2 -274 102
-199 355 -240 507 -82 63 66 88 126 88 215 1 66 -4 85 -31 141 -55 112 -137
167 -258 174 -38 2 -83 0 -100 -4z m144 -107 c147 -48 190 -229 84 -351 -25
-29 -105 -63 -147 -63 -44 0 -94 17 -132 46 -42 31 -84 116 -84 169 0 53 42
138 84 169 60 44 122 54 195 30z"/>
<path d="M1195 6070 c-19 -37 -10 -43 56 -38 l43 3 -41 33 -42 33 -16 -31z"/>
<path d="M8650 6003 c-55 -37 -53 -57 5 -50 55 6 59 9 51 42 -7 29 -22 31 -56
8z"/>
<path d="M8865 5440 c-7 -23 2 -77 15 -85 11 -7 70 15 70 26 0 5 -7 25 -14 44
-12 27 -21 35 -40 35 -16 0 -27 -7 -31 -20z"/>
<path d="M8723 5423 c-8 -3 -13 -23 -13 -49 0 -43 0 -44 34 -44 42 0 51 19 31
66 -13 32 -25 39 -52 27z"/>
<path d="M1290 3377 c-32 -16 -36 -41 -11 -66 26 -26 33 -26 61 -3 18 15 21
24 15 50 -7 35 -24 40 -65 19z"/>
<path d="M1908 2251 c-47 -30 -78 -73 -78 -109 0 -11 11 -31 25 -46 37 -39 89
-36 142 9 65 55 67 127 4 160 -39 20 -40 20 -93 -14z"/>
<path d="M3829 1043 c-13 -35 -6 -49 28 -56 46 -9 77 18 55 48 -6 9 -56 35
-68 35 -2 0 -9 -12 -15 -27z"/>
<path d="M3782 881 c-12 -34 -4 -45 41 -56 20 -5 33 -2 47 10 27 25 25 38 -9
58 -43 26 -67 22 -79 -12z"/>
</g>
</svg>
