<?xml version="1.0" encoding="utf-8"?>
<!-- Generator: Adobe Illustrator 21.1.0, SVG Export Plug-In . SVG Version: 6.00 Build 0)  -->
<svg version="1.1" id="Layer_1" xmlns="http://www.w3.org/2000/svg" xmlns:xlink="http://www.w3.org/1999/xlink" x="0px" y="0px"
	 viewBox="0 0 913 365.5" style="enable-background:new 0 0 913 365.5;" xml:space="preserve">
<style type="text/css">
	.st0{fill:#FFFFFF;}
</style>
<g>
	<path class="st0" d="M2.8,9.5C6.1,9,10,8.6,14.3,8.6c7.8,0,13.4,1.8,17.1,5.3c3.8,3.4,5.9,8.3,5.9,15.2c0,6.9-2.1,12.5-6.1,16.4
		c-3.9,3.9-10.5,6.1-18.7,6.1c-3.9,0-7.1-0.2-9.9-0.5V9.5z M8.2,46.8c1.4,0.3,3.4,0.3,5.5,0.3c11.6,0,18-6.5,18-17.9
		c0.1-10-5.6-16.3-17.1-16.3c-2.8,0-4.9,0.3-6.4,0.6V46.8z"/>
	<path class="st0" d="M44.1,59.3c0-1.6,1.4-3.1,3.1-3.1c1.8,0,3,1.5,3,3.1c0,1.6-1.3,3.2-3,3.2C45.4,62.5,44.1,60.9,44.1,59.3z
		 M49.9,9v42.2h-5.4V9H49.9z"/>
	<path class="st0" d="M88.9,49.8c-2,1-6,2-11.1,2c-11.9,0-20.8-7.5-20.8-21.3c0-13.2,9-22.2,22-22.2c5.3,0,8.6,1.1,10,1.9l-1.3,4.4
		c-2.1-1-5-1.8-8.5-1.8c-9.9,0-16.5,6.3-16.5,17.4c0,10.3,5.9,17,16.2,17c3.3,0,6.7-0.7,8.9-1.8L88.9,49.8z"/>
	<path class="st0" d="M101.2,9v17.7h20.4V9h5.5v42.2h-5.5V31.4h-20.4v19.8h-5.4V9H101.2z"/>
	<path class="st0" d="M156.8,51.1L143,9h5.9l6.6,20.8c1.8,5.7,3.4,10.8,4.5,15.8h0.1c1.2-4.9,2.9-10.2,4.8-15.7L172.1,9h5.8
		l-15.1,42.2H156.8z"/>
	<path class="st0" d="M187.9,9v25c0,9.5,4.2,13.5,9.8,13.5c6.3,0,10.3-4.1,10.3-13.5V9h5.5v24.6c0,13-6.8,18.3-16,18.3
		c-8.6,0-15.2-4.9-15.2-18V9H187.9z M194.9,59.3c0-1.6,1.4-3.1,3.2-3.1c1.7,0,3,1.5,3,3.1c0,1.6-1.3,3.2-3.1,3.2
		S194.9,60.9,194.9,59.3z"/>
	<path class="st0" d="M241.7,13.6h-12.8V9h31.2v4.6h-12.9v37.6h-5.5V13.6z"/>
	<path class="st0" d="M266.9,37.9l-4.4,13.3h-5.6L271.2,9h6.6l14.4,42.2h-5.8l-4.5-13.3H266.9z M269.9,0c0.4,1.4,1.4,3.1,4.5,3.1
		c3.1,0,4.3-1.4,4.6-3.1h3.2c-0.1,3.7-2.4,6.6-7.8,6.6c-5.3,0-7.6-2.9-7.7-6.6H269.9z M280.8,33.6l-4.1-12.1
		c-0.9-2.8-1.6-5.3-2.2-7.7h-0.1c-0.6,2.5-1.3,5.1-2.1,7.6l-4.1,12.2H280.8z"/>
	<path class="st0" d="M298.4,51.1V9h5.9l13.5,21.3c3.1,4.9,5.6,9.4,7.6,13.7l0.1-0.1c-0.5-5.6-0.6-10.8-0.6-17.3V9h5.1v42.2h-5.5
		l-13.4-21.4c-2.9-4.7-5.8-9.5-7.9-14.1l-0.2,0.1c0.3,5.3,0.4,10.4,0.4,17.4v18H298.4z"/>
	<path class="st0" d="M371.7,49.3c-2.4,0.9-7.3,2.3-13,2.3c-6.4,0-11.6-1.6-15.8-5.6c-3.6-3.5-5.9-9.1-5.9-15.7
		c0.1-12.6,8.7-21.8,22.9-21.8c4.9,0,8.7,1.1,10.5,1.9l-1.3,4.4c-2.3-1-5.1-1.8-9.3-1.8c-10.3,0-17,6.4-17,17c0,10.7,6.4,17,16.3,17
		c3.6,0,6-0.5,7.3-1.1V33.4h-8.6V29h13.9V49.3z"/>
	<path class="st0" d="M393.3,9H416v4.6h-17.3v14h16v4.5h-16v19.1h-5.4V9z"/>
	<path class="st0" d="M459.9,29.6c0,14.5-8.8,22.2-19.6,22.2c-11.1,0-19-8.6-19-21.4c0-13.4,8.3-22.2,19.6-22.2
		C452.4,8.3,459.9,17.1,459.9,29.6z M427.1,30.3c0,9,4.9,17.1,13.5,17.1c8.6,0,13.5-8,13.5-17.5c0-8.4-4.4-17.2-13.5-17.2
		C431.6,12.7,427.1,21,427.1,30.3z"/>
	<path class="st0" d="M466.9,9h5.4v37.6h18v4.6h-23.5V9z"/>
	<path class="st0" d="M496.5,9h5.4v37.6h18v4.6h-23.5V9z"/>
	<path class="st0" d="M559.6,29.6c0,14.5-8.8,22.2-19.6,22.2c-11.1,0-19-8.6-19-21.4c0-13.4,8.3-22.2,19.6-22.2
		C552.2,8.3,559.6,17.1,559.6,29.6z M526.9,30.3c0,9,4.9,17.1,13.5,17.1c8.6,0,13.5-8,13.5-17.5c0-8.4-4.4-17.2-13.5-17.2
		C531.4,12.7,526.9,21,526.9,30.3z"/>
	<path class="st0" d="M573.6,51.1L562.9,9h5.8l5,21.3c1.3,5.3,2.4,10.5,3.1,14.6h0.1c0.7-4.2,2-9.2,3.4-14.6L586,9h5.7l5.1,21.4
		c1.2,5,2.3,10,2.9,14.5h0.1c0.9-4.6,2.1-9.3,3.4-14.6L608.9,9h5.6l-12,42.2h-5.7l-5.3-22c-1.3-5.4-2.2-9.5-2.8-13.8h-0.1
		c-0.8,4.2-1.7,8.3-3.3,13.8l-6,22H573.6z"/>
	<path class="st0" d="M632.9,9h22.7v4.6h-17.3v14h16v4.5h-16v19.1h-5.4V9z"/>
	<path class="st0" d="M665.4,37.9L661,51.1h-5.6L669.7,9h6.6l14.4,42.2h-5.8l-4.5-13.3H665.4z M679.2,33.6l-4.1-12.1
		c-0.9-2.8-1.6-5.3-2.2-7.7h-0.1c-0.6,2.5-1.3,5.1-2.1,7.6l-4.1,12.2H679.2z"/>
	<path class="st0" d="M725.4,49.8c-2,1-6,2-11.1,2c-11.9,0-20.8-7.5-20.8-21.3c0-13.2,9-22.2,22-22.2c5.3,0,8.6,1.1,10,1.9l-1.3,4.4
		c-2.1-1-5-1.8-8.5-1.8c-9.9,0-16.5,6.3-16.5,17.4c0,10.3,5.9,17,16.2,17c3.3,0,6.7-0.7,8.9-1.8L725.4,49.8z"/>
	<path class="st0" d="M754.1,31.4h-16.4v15.2H756v4.6h-23.7V9H755v4.6h-17.3v13.3h16.4V31.4z"/>
	<path class="st0" d="M763,9.5c2.4-0.5,6.1-0.9,10-0.9c5.4,0,9,0.9,11.6,3.1c2.2,1.6,3.5,4.1,3.5,7.5c0,4.1-2.7,7.6-7.1,9.3v0.1
		c4,1,8.7,4.3,8.7,10.6c0,3.6-1.4,6.4-3.6,8.5c-2.9,2.7-7.7,3.9-14.6,3.9c-3.8,0-6.6-0.3-8.5-0.5V9.5z M768.5,26.8h4.9
		c5.8,0,9.1-3,9.1-7.1c0-4.9-3.8-6.9-9.3-6.9c-2.5,0-3.9,0.2-4.8,0.4V26.8z M768.5,47c1.1,0.2,2.6,0.3,4.6,0.3
		c5.6,0,10.8-2.1,10.8-8.2c0-5.8-4.9-8.1-10.9-8.1h-4.5V47z"/>
	<path class="st0" d="M833,29.6c0,14.5-8.8,22.2-19.6,22.2c-11.1,0-19-8.6-19-21.4c0-13.4,8.3-22.2,19.6-22.2
		C825.6,8.3,833,17.1,833,29.6z M800.3,30.3c0,9,4.9,17.1,13.5,17.1c8.6,0,13.5-8,13.5-17.5c0-8.4-4.4-17.2-13.5-17.2
		C804.8,12.7,800.3,21,800.3,30.3z"/>
	<path class="st0" d="M876.1,29.6c0,14.5-8.8,22.2-19.6,22.2c-11.1,0-19-8.6-19-21.4c0-13.4,8.3-22.2,19.6-22.2
		C868.7,8.3,876.1,17.1,876.1,29.6z M843.4,30.3c0,9,4.9,17.1,13.5,17.1c8.6,0,13.5-8,13.5-17.5c0-8.4-4.4-17.2-13.5-17.2
		C847.9,12.7,843.4,21,843.4,30.3z"/>
	<path class="st0" d="M883.2,9h5.4v20.3h0.2c1.1-1.6,2.3-3.1,3.3-4.5L905.1,9h6.8l-15.3,17.9L913,51.1h-6.4l-13.9-20.7l-4,4.6v16.1
		h-5.4V9z"/>
	<path class="st0" d="M19.8,132.2h-4l-10-26.8l-4.7,2L0,104.5l8.6-3.6l7.7,21.7c0.5,1.3,0.9,2.8,1.2,4h0.1c0.2-1.1,0.5-2.7,0.8-4.1
		l11.6-48h4.1L19.8,132.2z"/>
	<path class="st0" d="M51.2,84.1h22.7v4.6H56.7v14h16v4.5h-16v19.1h-5.4V84.1z"/>
	<path class="st0" d="M107,110.9c0,11.2-7.8,16.1-15.1,16.1c-8.2,0-14.5-6-14.5-15.6c0-10.1,6.6-16.1,15-16.1
		C101.1,95.3,107,101.6,107,110.9z M82.9,111.2c0,6.6,3.8,11.6,9.2,11.6c5.3,0,9.2-4.9,9.2-11.8c0-5.1-2.6-11.6-9.1-11.6
		C85.8,99.4,82.9,105.4,82.9,111.2z"/>
	<path class="st0" d="M113.9,81.8h5.5v44.5h-5.5V81.8z"/>
	<path class="st0" d="M128.7,81.8h5.5v44.5h-5.5V81.8z"/>
	<path class="st0" d="M170.9,110.9c0,11.2-7.8,16.1-15.1,16.1c-8.2,0-14.5-6-14.5-15.6c0-10.1,6.6-16.1,15-16.1
		C165,95.3,170.9,101.6,170.9,110.9z M146.9,111.2c0,6.6,3.8,11.6,9.2,11.6c5.3,0,9.2-4.9,9.2-11.8c0-5.1-2.6-11.6-9.1-11.6
		C149.7,99.4,146.9,105.4,146.9,111.2z"/>
	<path class="st0" d="M179.6,96l4,15.4c0.9,3.4,1.7,6.5,2.3,9.6h0.2c0.7-3.1,1.7-6.3,2.7-9.6l4.9-15.5h4.6l4.7,15.2
		c1.1,3.6,2,6.8,2.7,9.9h0.2c0.5-3.1,1.3-6.3,2.3-9.8l4.3-15.2h5.4l-9.8,30.3h-5l-4.6-14.5c-1.1-3.4-1.9-6.4-2.7-10h-0.1
		c-0.8,3.6-1.7,6.8-2.8,10l-4.9,14.4h-5L174,96H179.6z"/>
	<path class="st0" d="M236.8,104.2c0-3.1-0.1-5.7-0.3-8.2h4.9l0.3,5h0.1c1.5-2.9,5-5.7,10-5.7c4.2,0,10.7,2.5,10.7,12.9v18.1H257
		v-17.5c0-4.9-1.8-9-7-9c-3.6,0-6.4,2.6-7.4,5.6c-0.3,0.7-0.4,1.6-0.4,2.6v18.2h-5.5V104.2z"/>
	<path class="st0" d="M297.6,96c-0.1,2.2-0.3,4.6-0.3,8.3v17.6c0,6.9-1.4,11.2-4.3,13.8c-2.9,2.8-7.2,3.6-11,3.6
		c-3.6,0-7.6-0.9-10.1-2.5l1.4-4.2c2,1.3,5.1,2.4,8.9,2.4c5.6,0,9.8-2.9,9.8-10.6v-3.4h-0.1c-1.7,2.8-4.9,5.1-9.6,5.1
		c-7.5,0-12.9-6.4-12.9-14.8c0-10.3,6.7-16.1,13.6-16.1c5.3,0,8.1,2.8,9.5,5.3h0.1l0.3-4.6H297.6z M291.9,107.9
		c0-0.9-0.1-1.8-0.3-2.5c-1-3.2-3.7-5.8-7.7-5.8c-5.3,0-9,4.4-9,11.5c0,5.9,3,10.9,9,10.9c3.4,0,6.4-2.1,7.6-5.6
		c0.3-0.9,0.4-2,0.4-2.9V107.9z"/>
	<path class="st0" d="M336.7,89.2c0.7,1.3,1.1,2.8,1.1,4.5c0,3.1-2.3,5.1-5.3,5.3l-0.7,0.1v19c0,3.1,0.1,5.9,0.3,8.3h-4.9l-0.3-4.9
		h-0.1c-1.4,2.4-4.6,5.6-10,5.6c-4.8,0-10.5-2.6-10.5-13.3V96h5.5v16.8c0,5.8,1.8,9.6,6.8,9.6c3.7,0,6.3-2.6,7.3-5
		c0.3-0.8,0.5-1.8,0.5-2.8V96h4.3c2.2,0,2.9-0.9,2.9-2.4c0-1.2-0.4-2.5-1.1-3.6L336.7,89.2z"/>
	<path class="st0" d="M370,90.8c0.6,1.3,1.1,2.8,1.1,4.6c0,3.4-2,5.6-5.8,5.4c2,2.5,3.1,5.9,3.1,10c0,11.2-7.8,16.1-15.1,16.1
		c-8.2,0-14.5-6-14.5-15.6c0-10.1,6.6-16.1,15-16.1c1.9,0,3.5,0.3,5.2,0.9c1.5,0.4,3.4,1.6,5.3,1.6c1.6,0,2.5-0.9,2.5-2.5
		c0-1.4-0.4-2.6-1-3.7L370,90.8z M344.4,111.2c0,6.6,3.8,11.6,9.2,11.6c5.3,0,9.2-4.9,9.2-11.8c0-5.1-2.6-11.6-9.1-11.6
		C347.2,99.4,344.4,105.4,344.4,111.2z M351.6,82.9l5.5,9h-3.9l-7.6-9H351.6z"/>
	<path class="st0" d="M381.7,87.5c0.1,1.9-1.3,3.4-3.5,3.4c-1.9,0-3.3-1.5-3.3-3.4c0-1.9,1.4-3.4,3.4-3.4
		C380.4,84,381.7,85.5,381.7,87.5z M375.6,126.3V96h5.5v30.3H375.6z"/>
	<path class="st0" d="M429.7,81.8v36.6c0,2.7,0.1,5.8,0.3,7.8H425l-0.3-5.3h-0.1c-1.7,3.4-5.4,5.9-10.3,5.9c-7.3,0-13-6.2-13-15.4
		c-0.1-10.1,6.2-16.3,13.6-16.3c4.6,0,7.8,2.2,9.1,4.6h0.1V81.8H429.7z M424.2,108.3c0-0.7-0.1-1.6-0.3-2.3c-0.8-3.5-3.8-6.4-8-6.4
		c-5.7,0-9.1,5-9.1,11.7c0,6.1,3,11.2,9,11.2c3.7,0,7.1-2.4,8.1-6.6c0.2-0.8,0.3-1.5,0.3-2.4V108.3z"/>
	<path class="st0" d="M464.2,118c0,3.1,0.1,5.9,0.3,8.3h-4.9l-0.3-4.9h-0.1c-1.4,2.4-4.6,5.6-10,5.6c-4.8,0-10.5-2.6-10.5-13.3V96
		h5.5v16.8c0,5.8,1.8,9.6,6.8,9.6c3.7,0,6.3-2.6,7.3-5c0.3-0.8,0.5-1.8,0.5-2.8V96h5.5V118z M449.1,82.9l5.5,9h-3.9l-7.6-9H449.1z"
		/>
	<path class="st0" d="M473.3,104.2c0-3.1-0.1-5.7-0.3-8.2h4.9l0.3,5h0.1c1.5-2.9,5-5.7,10-5.7c4.2,0,10.7,2.5,10.7,12.9v18.1h-5.5
		v-17.5c0-4.9-1.8-9-7-9c-3.6,0-6.4,2.6-7.4,5.6c-0.3,0.7-0.4,1.6-0.4,2.6v18.2h-5.5V104.2z"/>
	<path class="st0" d="M534.2,96c-0.1,2.2-0.3,4.6-0.3,8.3v17.6c0,6.9-1.4,11.2-4.3,13.8c-2.9,2.8-7.2,3.6-11,3.6
		c-3.6,0-7.6-0.9-10.1-2.5l1.4-4.2c2,1.3,5.1,2.4,8.9,2.4c5.6,0,9.8-2.9,9.8-10.6v-3.4h-0.1c-1.7,2.8-4.9,5.1-9.6,5.1
		c-7.5,0-12.9-6.4-12.9-14.8c0-10.3,6.7-16.1,13.6-16.1c5.3,0,8.1,2.8,9.5,5.3h0.1l0.3-4.6H534.2z M528.5,107.9
		c0-0.9-0.1-1.8-0.3-2.5c-1-3.2-3.7-5.8-7.7-5.8c-5.3,0-9,4.4-9,11.5c0,5.9,3,10.9,9,10.9c3.4,0,6.4-2.1,7.6-5.6
		c0.3-0.9,0.4-2,0.4-2.9V107.9z"/>
	<path class="st0" d="M563,87.3V96h7.9v4.2H563v16.3c0,3.8,1.1,5.9,4.1,5.9c1.4,0,2.5-0.2,3.2-0.4l0.3,4.1c-1.1,0.4-2.8,0.8-4.9,0.8
		c-2.6,0-4.6-0.8-5.9-2.3c-1.6-1.6-2.1-4.3-2.1-7.9v-16.5h-4.7V96h4.7v-7.3L563,87.3z"/>
	<path class="st0" d="M577,81.8h5.5v18.9h0.1c0.9-1.6,2.3-2.9,3.9-3.9c1.6-0.9,3.6-1.6,5.6-1.6c4.1,0,10.6,2.5,10.6,13v18h-5.5
		v-17.4c0-4.9-1.8-9-7-9c-3.6,0-6.4,2.5-7.4,5.5c-0.3,0.8-0.4,1.6-0.4,2.6v18.3H577V81.8z"/>
	<path class="st0" d="M628.6,126.3l-0.4-3.8h-0.2c-1.7,2.4-4.9,4.5-9.3,4.5c-6.1,0-9.3-4.3-9.3-8.7c0-7.3,6.5-11.3,18.2-11.3v-0.6
		c0-2.5-0.7-7-6.9-7c-2.8,0-5.8,0.9-7.9,2.3l-1.3-3.6c2.5-1.6,6.1-2.7,10-2.7c9.3,0,11.5,6.3,11.5,12.4V119c0,2.6,0.1,5.2,0.5,7.3
		H628.6z M623.9,82.9l6,9h-4.2l-3.6-5.9h-0.1l-3.6,5.9h-4.1l5.9-9H623.9z M627.8,110.8c-6-0.1-12.8,0.9-12.8,6.8
		c0,3.6,2.4,5.3,5.2,5.3c3.9,0,6.4-2.5,7.3-5.1c0.2-0.6,0.3-1.2,0.3-1.8V110.8z M625.4,134.5c0,1.8-1.3,3.3-3.2,3.3
		c-1.8,0-3.1-1.5-3.1-3.3s1.4-3.2,3.2-3.2C624.1,131.3,625.4,132.7,625.4,134.5z"/>
	<path class="st0" d="M648.3,87.3V96h7.9v4.2h-7.9v16.3c0,3.8,1.1,5.9,4.1,5.9c1.4,0,2.5-0.2,3.2-0.4l0.3,4.1
		c-1.1,0.4-2.8,0.8-4.9,0.8c-2.6,0-4.6-0.8-5.9-2.3c-1.6-1.6-2.1-4.3-2.1-7.9v-16.5h-4.7V96h4.7v-7.3L648.3,87.3z"/>
	<path class="st0" d="M19.8,207.3h-4l-10-26.8l-4.7,2L0,179.6l8.6-3.6l7.7,21.7c0.5,1.3,0.9,2.8,1.2,4h0.1c0.2-1.1,0.5-2.7,0.8-4.1
		l11.6-48h4.1L19.8,207.3z"/>
	<path class="st0" d="M56.7,163.8H43.8v-4.6h31.2v4.6H62.2v37.6h-5.5V163.8z"/>
	<path class="st0" d="M102.5,186c0,11.2-7.8,16.1-15.1,16.1c-8.2,0-14.5-6-14.5-15.6c0-10.1,6.6-16.1,15-16.1
		C96.7,170.4,102.5,176.7,102.5,186z M78.5,186.3c0,6.6,3.8,11.6,9.2,11.6c5.3,0,9.2-4.9,9.2-11.8c0-5.1-2.6-11.6-9.1-11.6
		C81.3,174.5,78.5,180.5,78.5,186.3z M90,158l5.4,9h-4.2l-3.2-5.9h-0.1l-3.2,5.9h-4l5.3-9H90z M103,152.9l-6.2,8.3h-3.2l4.3-8.3H103
		z"/>
	<path class="st0" d="M131.1,200.3c-1.4,0.8-4.6,1.8-8.7,1.8c-9.1,0-15.1-6.2-15.1-15.5c0-9.3,6.4-16.1,16.3-16.1
		c3.3,0,6.1,0.8,7.6,1.6l-1.3,4.3c-1.3-0.8-3.4-1.4-6.4-1.4c-6.9,0-10.7,5.1-10.7,11.5c0,7,4.5,11.3,10.5,11.3
		c3.1,0,5.2-0.8,6.8-1.5L131.1,200.3z"/>
	<path class="st0" d="M177,166.8v26.7c0,2.7,0.1,5.8,0.3,7.8h-4.9l-0.3-5.3h-0.1c-1.7,3.4-5.4,5.9-10.3,5.9c-7.3,0-13-6.2-13-15.4
		c-0.1-10.1,6.2-16.3,13.6-16.3c4.6,0,7.8,2.2,9.1,4.6h0.1v-8.2h-12.3v-3.4h12.3v-6.4h5.5v6.4h4.8v3.4H177z M171.5,183.4
		c0-0.7-0.1-1.6-0.3-2.3c-0.8-3.5-3.8-6.4-8-6.4c-5.7,0-9.1,5-9.1,11.7c0,6.1,3,11.2,9,11.2c3.7,0,7.1-2.4,8.1-6.6
		c0.2-0.8,0.3-1.5,0.3-2.4V183.4z"/>
	<path class="st0" d="M213.5,186c0,11.2-7.8,16.1-15.1,16.1c-8.2,0-14.5-6-14.5-15.6c0-10.1,6.6-16.1,15-16.1
		C207.6,170.4,213.5,176.7,213.5,186z M189.5,186.3c0,6.6,3.8,11.6,9.2,11.6c5.3,0,9.2-4.9,9.2-11.8c0-5.1-2.6-11.6-9.1-11.6
		C192.3,174.5,189.5,180.5,189.5,186.3z M200.6,158l6,9h-4.3l-3.6-5.9h-0.1l-3.6,5.9h-4.1l5.9-9H200.6z M201.8,209.6
		c0,1.8-1.3,3.3-3.2,3.3c-1.8,0-3.1-1.5-3.1-3.3s1.4-3.2,3.2-3.2C200.5,206.4,201.8,207.8,201.8,209.6z"/>
	<path class="st0" d="M240.4,162.4v8.7h7.9v4.2h-7.9v16.3c0,3.8,1.1,5.9,4.1,5.9c1.4,0,2.5-0.2,3.2-0.4l0.3,4.1
		c-1.1,0.4-2.8,0.8-4.9,0.8c-2.6,0-4.6-0.8-5.9-2.3c-1.6-1.6-2.1-4.3-2.1-7.9v-16.5h-4.7v-4.2h4.7v-7.3L240.4,162.4z"/>
	<path class="st0" d="M271.2,201.4l-0.4-3.8h-0.2c-1.7,2.4-4.9,4.5-9.3,4.5c-6.1,0-9.3-4.3-9.3-8.7c0-7.3,6.5-11.3,18.2-11.3v-0.6
		c0-2.5-0.7-7-6.9-7c-2.8,0-5.8,0.9-7.9,2.3l-1.3-3.6c2.5-1.6,6.1-2.7,10-2.7c9.3,0,11.5,6.3,11.5,12.4v11.3c0,2.6,0.1,5.2,0.5,7.3
		H271.2z M260.5,158.7c0.4,2.4,1.9,4.3,4.5,4.3c2.9,0,4.3-2.3,4.5-4.3h3.3c0,4.6-3.1,7.8-7.8,7.8c-5.5,0-7.8-3.9-7.8-7.8H260.5z
		 M270.4,185.9c-6-0.1-12.8,0.9-12.8,6.8c0,3.6,2.4,5.3,5.2,5.3c3.9,0,6.4-2.5,7.3-5.1c0.2-0.6,0.3-1.2,0.3-1.8V185.9z"/>
	<path class="st0" d="M284.6,179.3c0-3.1-0.1-5.7-0.3-8.2h4.9l0.3,5h0.1c1.5-2.9,5-5.7,10-5.7c4.2,0,10.7,2.5,10.7,12.9v18.1h-5.5
		v-17.5c0-4.9-1.8-9-7-9c-3.6,0-6.4,2.6-7.4,5.6c-0.3,0.7-0.4,1.6-0.4,2.6v18.2h-5.5V179.3z"/>
	<path class="st0" d="M345.5,171.1c-0.1,2.2-0.3,4.6-0.3,8.3V197c0,6.9-1.4,11.2-4.3,13.8c-2.9,2.8-7.2,3.6-11,3.6
		c-3.6,0-7.6-0.9-10.1-2.5l1.4-4.2c2,1.3,5.1,2.4,8.9,2.4c5.6,0,9.8-2.9,9.8-10.6v-3.4h-0.1c-1.7,2.8-4.9,5.1-9.6,5.1
		c-7.5,0-12.9-6.4-12.9-14.8c0-10.3,6.7-16.1,13.6-16.1c5.3,0,8.1,2.8,9.5,5.3h0.1l0.3-4.6H345.5z M339.8,183c0-0.9-0.1-1.8-0.3-2.5
		c-1-3.2-3.7-5.8-7.7-5.8c-5.3,0-9,4.4-9,11.5c0,5.9,3,10.9,9,10.9c3.4,0,6.4-2.1,7.6-5.6c0.3-0.9,0.4-2,0.4-2.9V183z"/>
	<path class="st0" d="M367.6,179.3c0-3.1-0.1-5.7-0.3-8.2h4.9l0.3,5h0.1c1.5-2.9,5-5.7,10-5.7c4.2,0,10.7,2.5,10.7,12.9v18.1h-5.5
		v-17.5c0-4.9-1.8-9-7-9c-3.6,0-6.4,2.6-7.4,5.6c-0.3,0.7-0.4,1.6-0.4,2.6v18.2h-5.5V179.3z"/>
	<path class="st0" d="M402.4,156.9h5.5v18.9h0.1c0.9-1.6,2.3-2.9,3.9-3.9c1.6-0.9,3.6-1.6,5.6-1.6c4.1,0,10.6,2.5,10.6,13v18h-5.5
		V184c0-4.9-1.8-9-7-9c-3.6,0-6.4,2.5-7.4,5.5c-0.3,0.8-0.4,1.6-0.4,2.6v18.3h-5.5V156.9z"/>
	<path class="st0" d="M453.9,201.4l-0.4-3.8h-0.2c-1.7,2.4-4.9,4.5-9.3,4.5c-6.1,0-9.3-4.3-9.3-8.7c0-7.3,6.5-11.3,18.2-11.3v-0.6
		c0-2.5-0.7-7-6.9-7c-2.8,0-5.8,0.9-7.9,2.3l-1.3-3.6c2.5-1.6,6.1-2.7,10-2.7c9.3,0,11.5,6.3,11.5,12.4v11.3c0,2.6,0.1,5.2,0.5,7.3
		H453.9z M453.1,185.9c-6-0.1-12.8,0.9-12.8,6.8c0,3.6,2.4,5.3,5.2,5.3c3.9,0,6.4-2.5,7.3-5.1c0.2-0.6,0.3-1.2,0.3-1.8V185.9z"/>
	<path class="st0" d="M467.3,179.3c0-3.1-0.1-5.7-0.3-8.2h4.9l0.3,5h0.1c1.5-2.9,5-5.7,10-5.7c4.2,0,10.7,2.5,10.7,12.9v18.1h-5.5
		v-17.5c0-4.9-1.8-9-7-9c-3.6,0-6.4,2.6-7.4,5.6c-0.3,0.7-0.4,1.6-0.4,2.6v18.2h-5.5V179.3z"/>
	<path class="st0" d="M502,156.9h5.5v18.9h0.1c0.9-1.6,2.3-2.9,3.9-3.9c1.6-0.9,3.6-1.6,5.6-1.6c4.1,0,10.6,2.5,10.6,13v18h-5.5V184
		c0-4.9-1.8-9-7-9c-3.6,0-6.4,2.5-7.4,5.5c-0.3,0.8-0.4,1.6-0.4,2.6v18.3H502V156.9z"/>
	<path class="st0" d="M19.8,282.5h-4l-10-26.8l-4.7,2L0,254.7l8.6-3.6l7.7,21.7c0.5,1.3,0.9,2.8,1.2,4h0.1c0.2-1.1,0.5-2.7,0.8-4.1
		l11.6-48h4.1L19.8,282.5z"/>
	<path class="st0" d="M58,263.2l-4.4,13.3H48l14.3-42.2h6.6l14.4,42.2h-5.8L73,263.2H58z M71.9,259l-4.1-12.1
		c-0.9-2.8-1.6-5.3-2.2-7.7h-0.1c-0.6,2.5-1.3,5.1-2.1,7.6L59.2,259H71.9z"/>
	<path class="st0" d="M89.1,254.4c0-3.1-0.1-5.7-0.3-8.2h4.9l0.3,5h0.1c1.5-2.9,5-5.7,10-5.7c4.2,0,10.7,2.5,10.7,12.9v18.1h-5.5
		V259c0-4.9-1.8-9-7-9c-3.6,0-6.4,2.6-7.4,5.6c-0.3,0.7-0.4,1.6-0.4,2.6v18.2h-5.5V254.4z"/>
	<path class="st0" d="M143.8,237.5v8.7h7.9v4.2h-7.9v16.3c0,3.8,1.1,5.9,4.1,5.9c1.4,0,2.5-0.2,3.2-0.4l0.3,4.1
		c-1.1,0.4-2.8,0.8-4.9,0.8c-2.6,0-4.6-0.8-5.9-2.3c-1.6-1.6-2.1-4.3-2.1-7.9v-16.5h-4.7v-4.2h4.7v-7.3L143.8,237.5z"/>
	<path class="st0" d="M184.9,261.1c0,11.2-7.8,16.1-15.1,16.1c-8.2,0-14.5-6-14.5-15.6c0-10.1,6.6-16.1,15-16.1
		C179,245.5,184.9,251.8,184.9,261.1z M160.9,261.4c0,6.6,3.8,11.6,9.2,11.6c5.3,0,9.2-4.9,9.2-11.8c0-5.1-2.6-11.6-9.1-11.6
		C163.7,249.7,160.9,255.7,160.9,261.4z"/>
	<path class="st0" d="M208.6,276.5l-0.4-3.8H208c-1.7,2.4-4.9,4.5-9.3,4.5c-6.1,0-9.3-4.3-9.3-8.7c0-7.3,6.5-11.3,18.2-11.3v-0.6
		c0-2.5-0.7-7-6.9-7c-2.8,0-5.8,0.9-7.9,2.3l-1.3-3.6c2.5-1.6,6.1-2.7,10-2.7c9.3,0,11.5,6.3,11.5,12.4v11.3c0,2.6,0.1,5.2,0.5,7.3
		H208.6z M199.3,233.1l5.4,9h-3.9l-7.6-9H199.3z M207.8,261c-6-0.1-12.8,0.9-12.8,6.8c0,3.6,2.4,5.3,5.2,5.3c3.9,0,6.4-2.5,7.3-5.1
		c0.2-0.6,0.3-1.2,0.3-1.8V261z"/>
	<path class="st0" d="M222,254.4c0-3.1-0.1-5.7-0.3-8.2h4.9l0.3,5h0.1c1.5-2.9,5-5.7,10-5.7c4.2,0,10.7,2.5,10.7,12.9v18.1h-5.5V259
		c0-4.9-1.8-9-7-9c-3.6,0-6.4,2.6-7.4,5.6c-0.3,0.7-0.4,1.6-0.4,2.6v18.2H222V254.4z"/>
	<path class="st0" d="M272.2,246.2l5.9,17c1,2.8,1.8,5.3,2.4,7.8h0.2c0.7-2.5,1.6-5,2.6-7.8l5.9-17h5.8l-11.9,30.3h-5.3l-11.5-30.3
		H272.2z"/>
	<path class="st0" d="M328.6,241.1c0.6,1.3,1.1,2.8,1.1,4.6c0,3.4-2,5.6-5.8,5.4c2,2.5,3.1,5.9,3.1,10c0,11.2-7.8,16.1-15.1,16.1
		c-8.2,0-14.5-6-14.5-15.6c0-10.1,6.6-16.1,15-16.1c1.9,0,3.5,0.3,5.2,0.9c1.5,0.4,3.4,1.6,5.3,1.6c1.6,0,2.5-0.9,2.5-2.5
		c0-1.4-0.4-2.6-1-3.7L328.6,241.1z M302.9,261.4c0,6.6,3.8,11.6,9.2,11.6c5.3,0,9.2-4.9,9.2-11.8c0-5.1-2.6-11.6-9.1-11.6
		C305.7,249.7,302.9,255.7,302.9,261.4z M321,233.1l-7.7,9h-3.9l5.5-9H321z"/>
	<path class="st0" d="M340.3,237.7c0.1,1.9-1.3,3.4-3.5,3.4c-1.9,0-3.3-1.5-3.3-3.4c0-1.9,1.4-3.4,3.4-3.4
		C339,234.3,340.3,235.8,340.3,237.7z M334.2,276.5v-30.3h5.5v30.3H334.2z"/>
	<path class="st0" d="M368.7,237.5v8.7h7.9v4.2h-7.9v16.3c0,3.8,1.1,5.9,4.1,5.9c1.4,0,2.5-0.2,3.2-0.4l0.3,4.1
		c-1.1,0.4-2.8,0.8-4.9,0.8c-2.6,0-4.6-0.8-5.9-2.3c-1.6-1.6-2.1-4.3-2.1-7.9v-16.5h-4.7v-4.2h4.7v-7.3L368.7,237.5z"/>
	<path class="st0" d="M399.6,276.5l-0.4-3.8h-0.2c-1.7,2.4-4.9,4.5-9.3,4.5c-6.1,0-9.3-4.3-9.3-8.7c0-7.3,6.5-11.3,18.2-11.3v-0.6
		c0-2.5-0.7-7-6.9-7c-2.8,0-5.8,0.9-7.9,2.3l-1.3-3.6c2.5-1.6,6.1-2.7,10-2.7c9.3,0,11.5,6.3,11.5,12.4v11.3c0,2.6,0.1,5.2,0.5,7.3
		H399.6z M390.2,233.1l5.4,9h-3.9l-7.6-9H390.2z M398.8,261c-6-0.1-12.8,0.9-12.8,6.8c0,3.6,2.4,5.3,5.2,5.3c3.9,0,6.4-2.5,7.3-5.1
		c0.2-0.6,0.3-1.2,0.3-1.8V261z"/>
	<path class="st0" d="M419.1,237.7c0.1,1.9-1.3,3.4-3.5,3.4c-1.9,0-3.3-1.5-3.3-3.4c0-1.9,1.4-3.4,3.4-3.4
		C417.8,234.3,419.1,235.8,419.1,237.7z M413,276.5v-30.3h5.5v30.3H413z"/>
	<path class="st0" d="M446.3,260.1h0.1c0.8-1.1,1.8-2.4,2.7-3.4l8.9-10.5h6.6L453,258.7l13.3,17.8h-6.7L449.2,262l-2.8,3.1v11.4
		h-5.4v-44.5h5.4V260.1z"/>
	<path class="st0" d="M471.3,232.1h5.5V251h0.1c0.9-1.6,2.3-2.9,3.9-3.9c1.6-0.9,3.6-1.6,5.6-1.6c4.1,0,10.6,2.5,10.6,13v18h-5.5
		v-17.4c0-4.9-1.8-9-7-9c-3.6,0-6.4,2.5-7.4,5.5c-0.3,0.8-0.4,1.6-0.4,2.6v18.3h-5.5V232.1z"/>
	<path class="st0" d="M533.5,261.1c0,11.2-7.8,16.1-15.1,16.1c-8.2,0-14.5-6-14.5-15.6c0-10.1,6.6-16.1,15-16.1
		C527.6,245.5,533.5,251.8,533.5,261.1z M509.4,261.4c0,6.6,3.8,11.6,9.2,11.6c5.3,0,9.2-4.9,9.2-11.8c0-5.1-2.6-11.6-9.1-11.6
		C512.3,249.7,509.4,255.7,509.4,261.4z"/>
	<path class="st0" d="M557.2,276.5l-0.4-3.8h-0.2c-1.7,2.4-4.9,4.5-9.3,4.5c-6.1,0-9.3-4.3-9.3-8.7c0-7.3,6.5-11.3,18.2-11.3v-0.6
		c0-2.5-0.7-7-6.9-7c-2.8,0-5.8,0.9-7.9,2.3l-1.3-3.6c2.5-1.6,6.1-2.7,10-2.7c9.3,0,11.5,6.3,11.5,12.4v11.3c0,2.6,0.1,5.2,0.5,7.3
		H557.2z M556.4,261c-6-0.1-12.8,0.9-12.8,6.8c0,3.6,2.4,5.3,5.2,5.3c3.9,0,6.4-2.5,7.3-5.1c0.2-0.6,0.3-1.2,0.3-1.8V261z
		 M548.9,242.6c0.8-2.8,3.6-3.6,3.6-5.9c0-1.3-0.9-2.1-2.1-2.1c-1.3,0-2.3,1.1-3,2.2l-2.1-1.3c1.1-2.3,3-4.2,6.1-4.2
		c3,0,5.3,1.9,5.3,4.7c0,3.5-3.3,4.5-4.8,7.3L548.9,242.6z"/>
	<path class="st0" d="M570.6,254.4c0-3.1-0.1-5.7-0.3-8.2h4.9l0.3,5h0.1c1.5-2.9,5-5.7,10-5.7c4.2,0,10.7,2.5,10.7,12.9v18.1h-5.5
		V259c0-4.9-1.8-9-7-9c-3.6,0-6.4,2.6-7.4,5.6c-0.3,0.7-0.4,1.6-0.4,2.6v18.2h-5.5V254.4z"/>
	<path class="st0" d="M19.8,357.6h-4l-10-26.8l-4.7,2L0,329.8l8.6-3.6l7.7,21.7c0.5,1.3,0.9,2.8,1.2,4h0.1c0.2-1.1,0.5-2.7,0.8-4.1
		l11.6-48h4.1L19.8,357.6z"/>
	<path class="st0" d="M46.3,328h5.2v-18.2c3.3-0.6,7.3-0.9,11.6-0.9c7.8,0,13.4,1.8,17.1,5.3c3.8,3.4,5.9,8.4,5.9,15.3
		S84,342.1,80.1,346c-3.9,3.9-10.5,6.1-18.7,6.1c-3.9,0-7.1-0.1-9.9-0.4v-19.2h-5.2V328z M68.2,332.4H57v15c1.4,0.2,3.4,0.3,5.4,0.3
		c11.8,0,18-6.4,18-18.1c0.1-10.1-5.6-16.3-17.1-16.3c-2.8,0-4.9,0.3-6.4,0.6V328h11.3V332.4z"/>
	<path class="st0" d="M122.3,316.2c0.6,1.3,1.1,2.8,1.1,4.6c0,3.4-2,5.6-5.8,5.4c2,2.5,3.1,5.9,3.1,10c0,11.2-7.8,16.1-15.1,16.1
		c-8.2,0-14.5-6-14.5-15.6c0-10.1,6.6-16.1,15-16.1c1.9,0,3.5,0.3,5.2,0.9c1.5,0.4,3.4,1.6,5.3,1.6c1.6,0,2.5-0.9,2.5-2.5
		c0-1.4-0.4-2.6-1-3.7L122.3,316.2z M96.7,336.5c0,6.6,3.8,11.6,9.2,11.6c5.3,0,9.2-4.9,9.2-11.8c0-5.1-2.6-11.6-9.1-11.6
		C99.5,324.8,96.7,330.8,96.7,336.5z"/>
	<path class="st0" d="M127.9,329.5c0-3.1-0.1-5.7-0.3-8.2h4.9l0.3,5h0.1c1.5-2.9,5-5.7,10-5.7c4.2,0,10.7,2.5,10.7,12.9v18.1h-5.5
		v-17.5c0-4.9-1.8-9-7-9c-3.6,0-6.4,2.6-7.4,5.6c-0.3,0.7-0.4,1.6-0.4,2.6v18.2h-5.5V329.5z"/>
	<path class="st0" d="M178,321.3l5.9,17c1,2.8,1.8,5.3,2.4,7.8h0.2c0.7-2.5,1.6-5,2.6-7.8l5.9-17h5.8l-11.9,30.3h-5.3l-11.5-30.3
		H178z"/>
	<path class="st0" d="M212.1,312.8c0.1,1.9-1.3,3.4-3.5,3.4c-1.9,0-3.3-1.5-3.3-3.4c0-1.9,1.4-3.4,3.4-3.4
		C210.8,309.4,212.1,310.9,212.1,312.8z M211.9,359.8c0,1.8-1.3,3.3-3.2,3.3c-1.8,0-3.1-1.5-3.1-3.3s1.4-3.2,3.2-3.2
		C210.6,356.6,211.9,358.1,211.9,359.8z M206,351.6v-30.3h5.5v30.3H206z"/>
	<path class="st0" d="M259.3,343.4c0,3.1,0.1,5.9,0.3,8.3h-4.9l-0.3-4.9h-0.1c-1.4,2.4-4.6,5.6-10,5.6c-4.8,0-10.5-2.6-10.5-13.3
		v-17.7h5.5v16.8c0,5.8,1.8,9.6,6.8,9.6c3.7,0,6.3-2.6,7.3-5c0.3-0.8,0.5-1.8,0.5-2.8v-18.6h5.5V343.4z"/>
	<path class="st0" d="M270.4,321.3l6.6,17.9c0.7,2,1.4,4.4,1.9,6.2h0.1c0.6-1.8,1.2-4.1,1.9-6.3l6-17.8h5.8l-8.3,21.6
		c-3.9,10.4-6.6,15.7-10.4,19c-2.7,2.4-5.4,3.3-6.8,3.6l-1.4-4.6c1.4-0.4,3.2-1.3,4.8-2.7c1.5-1.2,3.4-3.3,4.6-6.1
		c0.3-0.6,0.4-1,0.4-1.3s-0.1-0.8-0.4-1.4l-11.2-27.9H270.4z"/>
	<path class="st0" d="M317.8,312.6v8.7h7.9v4.2h-7.9v16.3c0,3.8,1.1,5.9,4.1,5.9c1.4,0,2.5-0.2,3.2-0.4l0.3,4.1
		c-1.1,0.4-2.8,0.8-4.9,0.8c-2.6,0-4.6-0.8-5.9-2.3c-1.6-1.6-2.1-4.3-2.1-7.9v-16.5h-4.7v-4.2h4.7v-7.3L317.8,312.6z"/>
	<path class="st0" d="M343.1,308.2l-7.6,9h-3.9l5.5-9H343.1z M331.9,351.6v-30.3h5.5v30.3H331.9z"/>
	<path class="st0" d="M346.5,329.5c0-3.1-0.1-5.7-0.3-8.2h4.9l0.3,5h0.1c1.5-2.9,5-5.7,10-5.7c4.2,0,10.7,2.5,10.7,12.9v18.1h-5.5
		v-17.5c0-4.9-1.8-9-7-9c-3.6,0-6.4,2.6-7.4,5.6c-0.3,0.7-0.4,1.6-0.4,2.6v18.2h-5.5V329.5z"/>
	<path class="st0" d="M393.8,346c1.6,1.1,4.5,2.2,7.3,2.2c4,0,5.9-2,5.9-4.5c0-2.6-1.6-4.1-5.6-5.6c-5.4-1.9-8-4.9-8-8.6
		c0-4.9,3.9-8.9,10.5-8.9c3.1,0,5.8,0.9,7.5,1.9l-1.4,4c-1.2-0.8-3.4-1.8-6.2-1.8c-3.3,0-5.1,1.9-5.1,4.1c0,2.5,1.8,3.6,5.8,5.1
		c5.3,2,8,4.6,8,9.1c0,5.3-4.1,9.1-11.3,9.1c-3.3,0-6.4-0.8-8.5-2.1L393.8,346z"/>
	<path class="st0" d="M446.8,336.2c0,11.2-7.8,16.1-15.1,16.1c-8.2,0-14.5-6-14.5-15.6c0-10.1,6.6-16.1,15-16.1
		C440.9,320.6,446.8,327,446.8,336.2z M422.7,336.5c0,6.6,3.8,11.6,9.2,11.6c5.3,0,9.2-4.9,9.2-11.8c0-5.1-2.6-11.6-9.1-11.6
		C425.6,324.8,422.7,330.8,422.7,336.5z M434.3,308.2l5.4,9h-4.2l-3.2-5.9h-0.1l-3.2,5.9h-4l5.3-9H434.3z M447.3,303.1l-6.2,8.3
		h-3.2l4.3-8.3H447.3z"/>
	<path class="st0" d="M477.2,316.1h-0.1l-7.1,3.8l-1.1-4.2l8.9-4.8h4.7v40.7h-5.3V316.1z"/>
	<path class="st0" d="M519.6,351.6l-13.8-42.2h5.9l6.6,20.8c1.8,5.7,3.4,10.8,4.5,15.8h0.1c1.2-4.9,2.9-10.2,4.8-15.7l7.1-20.8h5.8
		l-15.1,42.2H519.6z"/>
	<path class="st0" d="M550.2,312.8c0.1,1.9-1.3,3.4-3.5,3.4c-1.9,0-3.3-1.5-3.3-3.4c0-1.9,1.4-3.4,3.4-3.4
		C548.9,309.4,550.2,310.9,550.2,312.8z M544.1,351.6v-30.3h5.5v30.3H544.1z"/>
	<path class="st0" d="M561.8,337.5c0.1,7.5,4.9,10.5,10.4,10.5c3.9,0,6.3-0.7,8.4-1.6l0.9,3.9c-1.9,0.9-5.3,1.9-10.1,1.9
		c-9.3,0-14.9-6.1-14.9-15.3s5.4-16.3,14.2-16.3c9.9,0,12.5,8.7,12.5,14.3c0,1.1-0.1,2-0.2,2.6H561.8z M577.9,333.5
		c0.1-3.5-1.4-9-7.6-9c-5.6,0-8,5.1-8.5,9H577.9z M571.7,308.2l6,9h-4.3l-3.6-5.9h-0.1l-3.6,5.9H562l5.9-9H571.7z M572.9,359.8
		c0,1.8-1.3,3.3-3.2,3.3c-1.8,0-3.1-1.5-3.1-3.3s1.4-3.2,3.2-3.2C571.6,356.6,572.9,358.1,572.9,359.8z"/>
	<path class="st0" d="M596.7,312.6v8.7h7.9v4.2h-7.9v16.3c0,3.8,1.1,5.9,4.1,5.9c1.4,0,2.5-0.2,3.2-0.4l0.3,4.1
		c-1.1,0.4-2.8,0.8-4.9,0.8c-2.6,0-4.6-0.8-5.9-2.3c-1.6-1.6-2.1-4.3-2.1-7.9v-16.5h-4.7v-4.2h4.7v-7.3L596.7,312.6z"/>
	<path class="st0" d="M624.2,351.6v-42.2h5.9l13.5,21.3c3.1,4.9,5.6,9.4,7.6,13.7l0.1-0.1c-0.5-5.6-0.6-10.8-0.6-17.3v-17.7h5.1
		v42.2h-5.5L637,330.2c-2.9-4.7-5.8-9.5-7.9-14.1l-0.2,0.1c0.3,5.3,0.4,10.4,0.4,17.4v18H624.2z"/>
	<path class="st0" d="M682,351.6l-0.4-3.8h-0.2c-1.7,2.4-4.9,4.5-9.3,4.5c-6.1,0-9.3-4.3-9.3-8.7c0-7.3,6.5-11.3,18.2-11.3v-0.6
		c0-2.5-0.7-7-6.9-7c-2.8,0-5.8,0.9-7.9,2.3l-1.3-3.6c2.5-1.6,6.1-2.7,10-2.7c9.3,0,11.5,6.3,11.5,12.4v11.3c0,2.6,0.1,5.2,0.5,7.3
		H682z M681.2,336.2c-6-0.1-12.8,0.9-12.8,6.8c0,3.6,2.4,5.3,5.2,5.3c3.9,0,6.4-2.5,7.3-5.1c0.2-0.6,0.3-1.2,0.3-1.8V336.2z"/>
	<path class="st0" d="M695.4,329.5c0-3.1-0.1-5.7-0.3-8.2h4.8l0.3,4.9h0.2c1.7-2.9,4.5-5.6,9.5-5.6c4.1,0,7.3,2.5,8.6,6.1h0.1
		c0.9-1.7,2.1-3,3.4-3.9c1.8-1.4,3.8-2.1,6.7-2.1c4,0,10,2.6,10,13.1v17.8h-5.4v-17.2c0-5.8-2.1-9.3-6.6-9.3c-3.1,0-5.6,2.3-6.5,5
		c-0.3,0.8-0.4,1.8-0.4,2.8v18.7h-5.4v-18.2c0-4.8-2.1-8.3-6.3-8.3c-3.4,0-5.9,2.8-6.8,5.5c-0.3,0.8-0.4,1.8-0.4,2.7v18.3h-5.4
		V329.5z"/>
</g>
</svg>
